<svg width="130" height="36" viewBox="0 0 130 36" fill="none" xmlns="http://www.w3.org/2000/svg">
<g clip-path="url(#clip0)">
<path d="M15.84 31.68C24.5882 31.68 31.68 24.5882 31.68 15.84C31.68 7.09181 24.5882 0 15.84 0C7.09181 0 0 7.09181 0 15.84C0 24.5882 7.09181 31.68 15.84 31.68Z" fill="#ACD2FF"/>
<path fill-rule="evenodd" clip-rule="evenodd" d="M18.2863 0.187775C18.3467 1.11428 18.378 2.0486 18.378 2.98963C18.378 13.2415 14.7435 22.644 8.69275 29.9789C10.8397 31.0663 13.2683 31.6799 15.8399 31.6799C24.5886 31.6799 31.6798 24.5875 31.6798 15.84C31.6798 7.9239 25.8727 1.36462 18.2863 0.187775Z" fill="#77B5FF"/>
<path d="M15.8401 30.908C24.1619 30.908 30.9081 24.1619 30.9081 15.8401C30.9081 7.51833 24.1619 0.772186 15.8401 0.772186C7.51836 0.772186 0.772217 7.51833 0.772217 15.8401C0.772217 24.1619 7.51836 30.908 15.8401 30.908Z" fill="url(#paint0_radial)"/>
<path fill-rule="evenodd" clip-rule="evenodd" d="M18.33 0.979034C18.3613 1.64513 18.378 2.3157 18.378 2.99074C18.378 12.9576 14.9425 22.122 9.19012 29.3642C11.1962 30.3521 13.4527 30.9087 15.8399 30.9087C24.1617 30.9087 30.9076 24.1628 30.9076 15.8411C30.9076 8.36758 25.4671 2.16594 18.33 0.979034Z" fill="url(#paint1_linear)"/>
<path fill-rule="evenodd" clip-rule="evenodd" d="M23.7325 10.5089H26.787C26.787 10.5089 27.1346 9.77577 26.5243 8.28152C25.9141 6.78727 25.1709 6.05411 24.9072 5.69648C24.1975 4.78003 22.5009 3.75965 22.2841 3.6423C22.2841 3.6423 22.9681 4.16758 23.4822 5.26396C24.1572 6.69786 24.6244 8.93532 23.7325 10.5089Z" fill="#2D8CFF"/>
<path fill-rule="evenodd" clip-rule="evenodd" d="M9.88416 9.96686C9.88416 9.96686 8.45361 10.8062 7.32482 13.8651C6.19603 16.924 5.99933 19.8007 6.33797 20.8021C6.33797 20.8021 5.01248 19.8857 4.63249 17.2917C4.2525 14.6977 5.60482 12.0881 9.88416 9.96686Z" fill="#2D8CFF"/>
<path fill-rule="evenodd" clip-rule="evenodd" d="M21.0011 20.1226L20.268 19.0989C18.2998 20.5049 16.8067 21.4336 15.7897 21.8862C15.0342 22.2204 14.3435 22.3802 13.7187 22.3668C13.0627 22.3523 12.5687 22.1276 12.2345 21.6929C11.9004 21.2581 11.7462 20.4993 11.7696 19.4163C11.7864 18.6697 11.8724 17.8852 12.0278 17.0649C14.9537 15.8176 16.8659 14.9514 17.7611 14.4675C19.5527 13.4695 20.8033 12.4972 21.5107 11.5517C22.2182 10.6062 22.5825 9.63719 22.6049 8.64587C22.625 7.70037 22.3557 6.95045 21.7957 6.39611C21.2358 5.84289 20.4144 5.55343 19.3314 5.52996C16.2356 5.46179 13.5343 7.24103 11.2264 10.8677C9.17229 14.0574 8.10943 17.2839 8.03791 20.5473C8.00214 22.1634 8.26254 23.3447 8.818 24.0891C9.37345 24.8334 10.1927 25.2178 11.2756 25.2413C13.9445 25.3005 17.1856 23.594 21.0011 20.1226ZM17.9478 12.1809C16.6849 13.4203 14.814 14.5614 12.334 15.6052C12.6626 13.8729 13.1957 12.1753 13.9333 10.5145C14.4474 9.38126 15.0677 8.54081 15.7975 7.99207C16.3407 7.57631 16.8939 7.37514 17.4583 7.38744C18.007 7.39861 18.4496 7.60313 18.7838 7.99989C19.119 8.39552 19.2789 8.92192 19.2643 9.57796C19.2453 10.4475 18.8061 11.3147 17.9478 12.1809Z" fill="#1E5CA8"/>
<path fill-rule="evenodd" clip-rule="evenodd" d="M48.5184 9.35759C48.5184 7.39126 46.9722 5.22263 43.0474 5.22263C38.7063 5.22263 36 9.27007 36 13.2618C36 17.5127 38.9442 20.5486 42.9285 20.5486C47.9237 20.5486 48.9347 16.8762 48.9347 16.8762L48.7854 16.7319C48.7854 16.7319 46.556 18.3799 44.1178 18.3799C41.0547 18.3799 39.3896 16.009 39.3896 12.5389L39.5086 12.481C39.5086 12.481 41.0547 13.2902 42.7793 13.2902C45.3958 13.2902 48.5184 12.2491 48.5184 9.35759ZM44.9795 9.32803C44.9795 11.1205 43.522 11.8433 42.1846 11.8433C40.9358 11.8433 39.4199 11.3807 39.4199 11.15C39.4199 10.0509 40.5487 6.55245 42.6603 6.55245C44.3546 6.55245 44.9795 7.96866 44.9795 9.32803Z" fill="#2D8CFF"/>
<path fill-rule="evenodd" clip-rule="evenodd" d="M51.9675 18.407C51.6993 18.7832 51.6398 19.2743 51.6398 19.5925C51.6398 19.783 51.6605 20.0137 51.667 20.0872C51.6684 20.102 51.6691 20.1104 51.669 20.1108H57.2589C62.1655 20.1108 64.009 20.3427 64.009 20.3427C63.8014 18.6662 63.7711 18.1456 61.6606 18.1456C59.5792 18.1456 56.9627 18.174 55.7139 18.5502L55.6544 18.4343C57.2903 15.8894 59.9652 11.5522 62.8499 7.47518C63.2359 6.9262 63.2954 6.34767 63.2954 6.00101V5.65434H57.8244C53.1557 5.65434 51.6398 5.30768 51.6398 5.30768C51.7588 6.43519 51.8485 7.47632 53.0076 7.47632C54.8219 7.47632 57.4676 7.47632 59.0732 7.18762L59.1327 7.30355C57.9433 9.61654 53.3947 16.4123 51.9675 18.407Z" fill="#2D8CFF"/>
<path fill-rule="evenodd" clip-rule="evenodd" d="M68.2614 24.1605C69.986 24.1605 71.4726 23.4376 72.4533 21.269L72.929 20.1994C71.9473 19.9676 70.7287 19.4186 70.3125 18.0308C69.4799 15.3996 67.6365 9.8484 66.566 7.53542C66.2687 6.92847 65.9422 6.26356 65.3767 5.80096V5.65661C65.9714 5.54068 66.566 5.42474 67.6073 5.42474C68.6182 5.42474 69.6583 5.74299 69.8962 6.63864C70.5212 9.12552 72.5128 14.7062 73.821 17.9149C77.9243 6.43632 76.3781 5.42474 78.9655 5.42474C79.8867 5.42474 80.3332 5.65661 80.3332 5.65661V5.80096C80.3332 5.80096 79.5602 6.29197 78.7871 8.46061L74.3865 20.5472C72.7809 24.9129 70.3125 26.7633 67.8743 26.7633C65.8222 26.7633 66.06 25.6642 65.9714 23.8718C66.7747 24.0457 67.5478 24.1605 68.2614 24.1605Z" fill="#2D8CFF"/>
<path fill-rule="evenodd" clip-rule="evenodd" d="M83.0081 5.62705C83.6039 7.15919 83.6926 10.4269 83.6926 13.1445C83.6926 18.898 83.6028 21.7611 83.6028 24.5935C83.6028 26.386 84.3164 26.8201 85.4171 26.8201C86.0409 26.8201 86.7546 26.6474 87.4984 26.5314C87.4984 26.5314 86.9632 24.9993 86.9632 21.6736C86.9632 21.2406 86.9632 20.778 86.9935 20.2858C87.4984 20.3722 87.9147 20.4302 88.4802 20.4302C94.3977 20.4302 97.2219 16.7578 97.2219 11.8136C97.2219 8.14122 95.1405 5.22128 91.7509 5.22128C88.1223 5.22128 86.9632 7.50585 86.9632 7.50585L86.814 7.44789C86.8443 7.33309 86.8735 7.15919 86.8735 6.95688C86.8735 6.06123 85.8334 5.36677 84.4656 5.36677C83.9899 5.36677 83.5142 5.4827 83.0081 5.62705ZM93.6528 12.4796C93.6528 15.7474 92.1066 19.0719 88.8954 19.0719C87.7958 19.0719 86.9038 18.898 86.9038 18.1467V14.5323C86.9038 13.1741 86.9038 11.8147 87.0519 10.5713C87.3201 8.37422 88.6575 7.07281 90.4415 7.07281C92.4937 7.07281 93.6528 9.81998 93.6528 12.4796Z" fill="#2D8CFF"/>
<path fill-rule="evenodd" clip-rule="evenodd" d="M108.282 10.9179V11.1782C105.041 11.2362 100.194 12.4796 100.194 16.6692C100.194 18.7798 101.652 20.5438 104.149 20.5438C106.022 20.5438 107.509 19.5311 108.193 18.3172L108.312 18.3752C108.342 19.9085 109.62 20.3995 110.84 20.3995C113.397 20.3995 114.14 18.6071 114.14 18.6071L114.021 18.5207C114.021 18.5207 113.486 18.9253 112.891 18.9253C111.435 18.9253 111.404 16.8431 111.404 15.7155V15.3689C111.404 13.7788 111.493 11.8409 111.493 10.3087C111.493 7.67749 110.929 5.22015 106.706 5.22015C104.09 5.22015 101.681 7.01371 101.205 8.74817L101.324 8.8641C102.425 7.91049 103.971 7.12965 105.427 7.12965C107.716 7.12965 108.282 8.48902 108.282 10.9179ZM108.192 16.4987C108.192 17.5966 106.557 18.4934 105.546 18.4934C104.506 18.4934 103.555 17.858 103.553 16.1236C103.553 13.0582 107.061 12.5376 108.281 12.3353C108.281 13.8095 108.192 15.3416 108.192 16.4987Z" fill="#2D8CFF"/>
<path fill-rule="evenodd" clip-rule="evenodd" d="M117.529 24.1605C119.254 24.1605 120.741 23.4376 121.721 21.269L122.197 20.1995C121.215 19.9676 119.997 19.4186 119.58 18.0308C118.748 15.3996 116.904 9.84841 115.834 7.53542C115.537 6.92848 115.21 6.26356 114.645 5.80097V5.65662C115.239 5.54068 115.834 5.42475 116.875 5.42475C117.886 5.42475 118.926 5.743 119.164 6.63864C119.789 9.12553 121.781 14.7063 123.089 17.9149C127.192 6.43633 125.646 5.42361 128.232 5.42361C129.153 5.42361 129.6 5.65548 129.6 5.65548V5.79983C129.6 5.79983 128.827 6.29084 128.054 8.45948L123.653 20.5461C122.048 24.9118 119.579 26.7622 117.141 26.7622C115.089 26.7622 115.327 25.6631 115.238 23.8707C116.043 24.0457 116.816 24.1605 117.529 24.1605Z" fill="#2D8CFF"/>
<path fill-rule="evenodd" clip-rule="evenodd" d="M63.4033 29.9877L63.3082 30.4726C63.6839 30.0869 64.1387 29.8998 64.6716 29.9113C64.9556 29.917 65.1966 29.9797 65.3946 30.0995C65.5926 30.2193 65.7284 30.3893 65.8031 30.6083C66.2228 30.1326 66.7184 29.8998 67.2909 29.9101C67.7389 29.9204 68.0682 30.0664 68.2809 30.3471C68.4936 30.6277 68.5728 31.0053 68.5174 31.4776L68.0241 34.3298H67.2784L67.7672 31.4697C67.7842 31.3305 67.7842 31.2038 67.7672 31.0886C67.7152 30.7247 67.4685 30.5387 67.0295 30.5307C66.7557 30.525 66.5079 30.6072 66.2862 30.7772C66.0644 30.9472 65.9207 31.1696 65.8574 31.4446L65.3482 34.3286H64.5936L65.0902 31.4731C65.1265 31.1765 65.0801 30.9472 64.9511 30.7874C64.8232 30.6266 64.623 30.5444 64.3526 30.5387C63.8853 30.5285 63.5142 30.7338 63.2381 31.1559L62.6701 34.3286H61.92L62.6984 29.9888L63.4033 29.9877Z" fill="black"/>
<path fill-rule="evenodd" clip-rule="evenodd" d="M72.1051 34.1039C72.1051 34.178 72.1153 34.2545 72.1345 34.332V34.3332H72.8982L72.9062 34.2647C72.8677 34.121 72.8507 33.975 72.8564 33.8278L72.8768 33.5186L73.2411 31.3692C73.283 30.9334 73.1732 30.5843 72.9141 30.3208C72.655 30.0573 72.2918 29.9204 71.8245 29.9101C71.5236 29.9044 71.2317 29.9557 70.9499 30.0641C70.6682 30.1725 70.4374 30.3254 70.2575 30.5216C70.0776 30.7178 69.9758 30.9426 69.9509 31.197L70.7055 31.1924C70.7497 30.9836 70.8707 30.8159 71.0676 30.6893C71.2645 30.5627 71.4919 30.5011 71.7487 30.5068C72.0112 30.5125 72.2081 30.5912 72.3393 30.7418C72.4706 30.8935 72.5215 31.0989 72.4943 31.3578L72.4445 31.7024L71.6616 31.6978C71.0291 31.6978 70.5189 31.8267 70.1308 32.0846C69.7427 32.3424 69.5345 32.7018 69.5074 33.1615C69.4859 33.5175 69.5979 33.8141 69.8457 34.0502C70.0923 34.2864 70.4136 34.4073 70.8085 34.413C71.269 34.4233 71.7057 34.2442 72.1176 33.8757L72.1051 34.1039ZM71.639 33.6042C71.4252 33.7205 71.1977 33.7764 70.9579 33.7707C70.7237 33.765 70.5438 33.6954 70.4204 33.5597C70.2971 33.4239 70.2485 33.2551 70.2733 33.052C70.3062 32.7873 70.4476 32.5831 70.6999 32.4382C70.9522 32.2933 71.3131 32.2215 71.7861 32.2215L72.3541 32.226L72.1923 33.1205C72.0373 33.327 71.8528 33.4878 71.639 33.6042Z" fill="black"/>
<path fill-rule="evenodd" clip-rule="evenodd" d="M75.7325 32.3294L75.1442 32.8382L74.8794 34.3304H74.1293L75.2358 28.1698H75.9859L75.3229 31.8513L75.7823 31.4018L77.3731 29.9895H78.3472L76.288 31.8388L77.7046 34.3293H76.8843L75.7325 32.3294Z" fill="black"/>
<path fill-rule="evenodd" clip-rule="evenodd" d="M79.0974 33.8141C79.4119 34.202 79.8486 34.4016 80.4064 34.4119C80.7708 34.4176 81.1023 34.3457 81.3998 34.1974C81.6974 34.0491 81.9395 33.8438 82.1274 33.5814L81.6963 33.2288C81.3206 33.6247 80.9122 33.8164 80.4698 33.8061C80.1055 33.7959 79.8317 33.6521 79.6473 33.3772C79.4628 33.1022 79.3961 32.7679 79.4458 32.3743H82.3751L82.4204 32.0412C82.4396 31.8678 82.4453 31.6933 82.4374 31.5198C82.4125 31.0304 82.2688 30.6425 82.0063 30.3562C81.7438 30.0698 81.3817 29.9215 80.9201 29.9112C80.5581 29.9033 80.2209 29.99 79.9086 30.1702C79.5963 30.3505 79.3327 30.6186 79.1155 30.9745C78.8983 31.3305 78.767 31.7241 78.7195 32.1542L78.6991 32.3264C78.6493 32.9299 78.7828 33.4262 79.0974 33.8141ZM80.0727 30.8216C80.3035 30.6106 80.5739 30.509 80.8828 30.517C81.1736 30.525 81.3964 30.6402 81.5526 30.8639C81.7087 31.0875 81.7642 31.3681 81.72 31.7047L81.7031 31.7686L79.5239 31.764C79.6586 31.3476 79.8419 31.0327 80.0727 30.8216Z" fill="black"/>
<path fill-rule="evenodd" clip-rule="evenodd" d="M85.8566 33.157C85.8984 32.857 85.7276 32.6459 85.3474 32.5238L84.569 32.3036C83.9116 32.0846 83.5937 31.7207 83.6163 31.213C83.6356 30.8308 83.8155 30.5171 84.1572 30.2729C84.4977 30.0288 84.8994 29.909 85.361 29.9135C85.8136 29.9193 86.1824 30.047 86.4653 30.2969C86.7481 30.5467 86.885 30.8719 86.8737 31.2734L86.1281 31.2689C86.1338 31.0521 86.0636 30.8753 85.9165 30.7395C85.7695 30.6038 85.576 30.5319 85.3327 30.5273C85.0736 30.5216 84.8496 30.5832 84.6618 30.7121C84.4875 30.8319 84.3868 30.9905 84.3597 31.1856C84.3235 31.4366 84.483 31.6203 84.836 31.7355L85.2128 31.8359C85.7265 31.9648 86.0908 32.1314 86.3069 32.3367C86.523 32.5421 86.6214 32.7976 86.6056 33.1022C86.5886 33.3726 86.4981 33.6076 86.3318 33.8084C86.1655 34.0092 85.9448 34.1621 85.6688 34.2682C85.3927 34.3743 85.0985 34.4222 84.7862 34.4142C84.311 34.4085 83.9184 34.275 83.6095 34.0115C83.3007 33.748 83.1513 33.4091 83.1615 32.995L83.9116 32.9996C83.9116 33.2426 83.992 33.4376 84.1526 33.5848C84.3133 33.732 84.5328 33.805 84.8111 33.805C85.0849 33.8107 85.3203 33.7548 85.5194 33.6384C85.7185 33.5221 85.8283 33.3601 85.8566 33.157Z" fill="black"/>
<path fill-rule="evenodd" clip-rule="evenodd" d="M90.6809 34.3315H89.9353L91.0373 28.1709H91.7875L90.6809 34.3315Z" fill="black"/>
<path fill-rule="evenodd" clip-rule="evenodd" d="M93.8659 28.5183C93.7822 28.4395 93.6758 28.4019 93.5491 28.4076C93.419 28.4133 93.3149 28.4589 93.2346 28.5411C93.1542 28.6232 93.1135 28.7282 93.1101 28.8537C93.1067 28.9792 93.1474 29.0807 93.23 29.1583C93.3126 29.2359 93.419 29.2724 93.5491 29.2667C93.6792 29.261 93.7844 29.2176 93.8659 29.1378C93.9474 29.0568 93.9904 28.9541 93.9926 28.8286C93.9926 28.7008 93.9496 28.597 93.8659 28.5183ZM92.1857 34.3321H92.9313L93.7098 29.9923H92.9642L92.1857 34.3321Z" fill="black"/>
<path fill-rule="evenodd" clip-rule="evenodd" d="M94.7349 34.3321L95.4148 30.5661H94.7224L94.8265 29.9922H95.5144L95.5891 29.4789C95.6604 29.0431 95.8346 28.7019 96.1107 28.4567C96.4003 28.2 96.7703 28.0745 97.2206 28.0802C97.362 28.0802 97.5397 28.103 97.7546 28.1486L97.663 28.7578C97.5306 28.7316 97.396 28.7145 97.2613 28.7099C97.0011 28.7099 96.7907 28.7875 96.63 28.9438C96.4682 29.1001 96.3686 29.3066 96.329 29.5656L96.2623 29.9934H97.1901L97.086 30.5672H96.1582L95.4827 34.3332H94.7349V34.3321Z" fill="black"/>
<path fill-rule="evenodd" clip-rule="evenodd" d="M98.0126 33.8141C98.3272 34.202 98.7639 34.4016 99.3217 34.4119C99.6872 34.4176 100.018 34.3457 100.315 34.1974C100.613 34.0491 100.855 33.8438 101.043 33.5814L100.612 33.2288C100.236 33.6247 99.8275 33.8164 99.3851 33.8061C99.0207 33.7959 98.7469 33.6521 98.5625 33.3772C98.3781 33.1022 98.3114 32.7679 98.3611 32.3743H101.29L101.336 32.0412C101.355 31.8678 101.361 31.6933 101.353 31.5198C101.328 31.0304 101.184 30.6425 100.922 30.3562C100.659 30.0698 100.297 29.9215 99.8354 29.9112C99.4733 29.9033 99.1362 29.99 98.8239 30.1702C98.5116 30.3505 98.248 30.6186 98.0308 30.9745C97.8135 31.3305 97.6823 31.7241 97.6347 32.1542L97.6144 32.3264C97.5646 32.9299 97.6981 33.4262 98.0126 33.8141ZM98.9891 30.8216C99.2199 30.6106 99.4903 30.509 99.7992 30.517C100.089 30.525 100.313 30.6402 100.469 30.8639C100.625 31.0875 100.681 31.3681 100.636 31.7047L100.619 31.7686L98.4404 31.764C98.575 31.3476 98.7583 31.0327 98.9891 30.8216Z" fill="black"/>
<path fill-rule="evenodd" clip-rule="evenodd" d="M107.064 33.157C107.106 32.857 106.935 32.6459 106.555 32.5238L105.777 32.3036C105.119 32.0846 104.801 31.7207 104.824 31.213C104.843 30.8308 105.023 30.5171 105.365 30.2729C105.705 30.0288 106.107 29.909 106.569 29.9135C107.021 29.9193 107.39 30.047 107.673 30.2969C107.956 30.5467 108.093 30.8719 108.081 31.2734L107.336 31.2689C107.341 31.0521 107.271 30.8753 107.124 30.7395C106.977 30.6038 106.783 30.5319 106.54 30.5273C106.281 30.5216 106.057 30.5832 105.869 30.7121C105.695 30.8319 105.594 30.9905 105.567 31.1856C105.531 31.4366 105.691 31.6203 106.044 31.7355L106.42 31.8359C106.934 31.9648 107.298 32.1314 107.514 32.3367C107.731 32.5421 107.829 32.7976 107.813 33.1022C107.796 33.3726 107.706 33.6076 107.539 33.8084C107.373 34.0092 107.152 34.1621 106.876 34.2682C106.6 34.3743 106.306 34.4222 105.994 34.4142C105.519 34.4085 105.126 34.275 104.817 34.0115C104.508 33.748 104.359 33.4091 104.369 32.995L105.119 32.9996C105.119 33.2426 105.199 33.4376 105.36 33.5848C105.521 33.732 105.74 33.805 106.019 33.805C106.292 33.8107 106.528 33.7548 106.727 33.6384C106.926 33.5221 107.036 33.3601 107.064 33.157Z" fill="black"/>
<path fill-rule="evenodd" clip-rule="evenodd" d="M110.531 28.5183C110.447 28.4395 110.341 28.4019 110.214 28.4076C110.084 28.4133 109.98 28.4589 109.899 28.5411C109.819 28.6232 109.778 28.7282 109.775 28.8537C109.772 28.9792 109.812 29.0807 109.895 29.1583C109.977 29.2359 110.084 29.2724 110.214 29.2667C110.344 29.261 110.449 29.2176 110.531 29.1378C110.612 29.0568 110.655 28.9541 110.658 28.8286C110.658 28.7008 110.614 28.597 110.531 28.5183ZM108.851 34.3321H109.596L110.375 29.9923H109.629L108.851 34.3321Z" fill="black"/>
<path fill-rule="evenodd" clip-rule="evenodd" d="M112.514 29.9877L112.419 30.4726C112.795 30.0869 113.25 29.8998 113.782 29.9113C114.066 29.917 114.307 29.9797 114.505 30.0995C114.703 30.2193 114.839 30.3893 114.914 30.6083C115.334 30.1326 115.829 29.8998 116.402 29.9101C116.85 29.9204 117.179 30.0664 117.392 30.3471C117.604 30.6277 117.684 31.0053 117.628 31.4776L117.135 34.3298H116.389L116.878 31.4697C116.895 31.3305 116.895 31.2038 116.878 31.0886C116.826 30.7247 116.579 30.5387 116.14 30.5307C115.867 30.525 115.619 30.6072 115.397 30.7772C115.175 30.9472 115.032 31.1696 114.968 31.4446L114.459 34.3286H113.704L114.201 31.4731C114.237 31.1765 114.191 30.9472 114.062 30.7874C113.934 30.6266 113.734 30.5444 113.463 30.5387C112.996 30.5285 112.625 30.7338 112.349 31.1559L111.781 34.3286H111.031L111.809 29.9888L112.514 29.9877Z" fill="black"/>
<path fill-rule="evenodd" clip-rule="evenodd" d="M122.194 33.3726C122.385 33.0201 122.507 32.6231 122.562 32.1816L122.576 32.0971C122.592 31.9363 122.599 31.7709 122.596 31.5997C122.583 31.0784 122.456 30.6688 122.215 30.3722C121.975 30.0755 121.639 29.9215 121.208 29.9113C120.691 29.8998 120.248 30.087 119.878 30.4726L119.96 29.9877L119.28 29.9923L118.203 36H118.953L119.355 33.9065C119.631 34.2351 120.029 34.4051 120.548 34.4154C120.891 34.4233 121.204 34.3389 121.485 34.1644C121.767 33.9898 122.002 33.7251 122.194 33.3726ZM121.845 31.7629L121.825 32.0994C121.742 32.6687 121.57 33.0977 121.31 33.3874C121.049 33.6772 120.732 33.8175 120.358 33.8096C119.922 33.7982 119.62 33.6008 119.451 33.2163L119.828 31.1377C120.142 30.7293 120.517 30.5307 120.95 30.541C121.241 30.5513 121.462 30.6608 121.615 30.8673C121.768 31.0749 121.845 31.3727 121.845 31.7629Z" fill="black"/>
<path fill-rule="evenodd" clip-rule="evenodd" d="M124.187 34.3315H123.442L124.544 28.1709H125.294L124.187 34.3315Z" fill="black"/>
<path fill-rule="evenodd" clip-rule="evenodd" d="M126.257 33.8141C126.571 34.202 127.008 34.4016 127.566 34.4119C127.93 34.4176 128.26 34.3457 128.559 34.1974C128.857 34.0491 129.099 33.8438 129.286 33.5814L128.855 33.2288C128.48 33.6247 128.071 33.8164 127.629 33.8061C127.265 33.7959 126.991 33.6521 126.806 33.3772C126.622 33.1022 126.555 32.7679 126.605 32.3743H129.534L129.58 32.0412C129.599 31.8678 129.604 31.6933 129.596 31.5198C129.572 31.0304 129.428 30.6425 129.165 30.3562C128.903 30.0698 128.541 29.9215 128.079 29.9112C127.717 29.9033 127.38 29.99 127.068 30.1702C126.755 30.3505 126.492 30.6186 126.275 30.9745C126.057 31.3305 125.926 31.7241 125.879 32.1542L125.858 32.3264C125.808 32.9299 125.942 33.4262 126.257 33.8141ZM127.232 30.8216C127.463 30.6106 127.733 30.509 128.042 30.517C128.332 30.525 128.556 30.6402 128.712 30.8639C128.868 31.0875 128.923 31.3681 128.879 31.7047L128.862 31.7686L126.683 31.764C126.818 31.3476 127.001 31.0327 127.232 30.8216Z" fill="black"/>
</g>
<defs>
<radialGradient id="paint0_radial" cx="0" cy="0" r="1" gradientUnits="userSpaceOnUse" gradientTransform="translate(15.8401 15.8401) scale(16.1783)">
<stop offset="0.58" stop-color="#EBF7FD"/>
<stop offset="0.853" stop-color="#C4E3F4"/>
<stop offset="0.884" stop-color="#C2DFEE"/>
<stop offset="0.923" stop-color="#BCD3DF"/>
<stop offset="0.967" stop-color="#B2BEC5"/>
<stop offset="0.968" stop-color="#B2BEC4"/>
</radialGradient>
<linearGradient id="paint1_linear" x1="18.122" y1="30.7946" x2="26.4474" y2="-0.278048" gradientUnits="userSpaceOnUse">
<stop offset="0.1" stop-color="#8EC3DE"/>
<stop offset="0.206" stop-color="#A7D1E6"/>
<stop offset="0.361" stop-color="#C5E2F0"/>
<stop offset="0.513" stop-color="#DAEDF7"/>
<stop offset="0.661" stop-color="#E7F5FC"/>
<stop offset="0.8" stop-color="#EBF7FD"/>
<stop offset="0.845" stop-color="#E5F2F8"/>
<stop offset="0.902" stop-color="#D6E3EA"/>
<stop offset="0.966" stop-color="#BCCAD2"/>
<stop offset="0.981" stop-color="#B4C3CB"/>
</linearGradient>
<clipPath id="clip0">
<rect width="129.6" height="36" fill="white"/>
</clipPath>
</defs>
</svg>
