<svg width="24" height="24" viewBox="0 0 24 24" fill="none" xmlns="http://www.w3.org/2000/svg">
<circle cx="12" cy="12" r="12" fill="#1596D9"/>
<g clip-path="url(#clip0)">
<path d="M17.997 18V17.9995H18V13.5985C18 11.4455 17.5365 9.78705 15.0195 9.78705C13.8095 9.78705 12.9975 10.451 12.666 11.0805H12.631V9.98805H10.2445V17.9995H12.7295V14.0325C12.7295 12.988 12.9275 11.978 14.221 11.978C15.4955 11.978 15.5145 13.17 15.5145 14.0995V18H17.997Z" fill="white"/>
<path d="M6.198 9.98846H8.686V18H6.198V9.98846Z" fill="white"/>
<path d="M7.441 6C6.6455 6 6 6.6455 6 7.441C6 8.2365 6.6455 8.8955 7.441 8.8955C8.2365 8.8955 8.882 8.2365 8.882 7.441C8.8815 6.6455 8.236 6 7.441 6V6Z" fill="white"/>
</g>
<defs>
<clipPath id="clip0">
<rect width="12" height="12" fill="white" transform="translate(6 6)"/>
</clipPath>
</defs>
</svg>
