<svg width="20" height="20" viewBox="0 0 20 20" fill="none" xmlns="http://www.w3.org/2000/svg">
<path d="M14.3744 20C13.7288 20 13.0886 19.8859 12.4627 19.6585C9.70506 18.6567 7.14539 17.0251 5.06032 14.9401C2.97525 12.8551 1.34368 10.2954 0.341959 7.53774C0.0200578 6.65152 -0.0749383 5.73672 0.0597046 4.81863C0.185832 3.95867 0.518944 3.12382 1.02306 2.40432C1.52941 1.68165 2.20446 1.08058 2.97521 0.666105C3.79713 0.224131 4.69424 0 5.64171 0C5.93638 0 6.19106 0.20589 6.25281 0.494003L7.23379 5.0719C7.2782 5.2792 7.21449 5.49489 7.06462 5.64481L5.38839 7.32099C6.96966 10.4648 9.53549 13.0307 12.6793 14.6119L14.3555 12.9357C14.5054 12.7858 14.7211 12.7222 14.9284 12.7665L19.5063 13.7475C19.7945 13.8093 20.0003 14.064 20.0003 14.3586C20.0003 15.3061 19.7762 16.2032 19.3342 17.0252C18.9197 17.7959 18.3187 18.471 17.596 18.9773C16.8765 19.4814 16.0417 19.8145 15.1817 19.9407C14.9122 19.9802 14.6427 20 14.3744 20ZM5.14235 1.27729C3.8926 1.41525 2.78334 2.07031 2.04673 3.12163C1.21841 4.30381 1.02525 5.75785 1.51679 7.111C3.44265 12.4126 7.58784 16.5578 12.8894 18.4836C14.2425 18.9752 15.6966 18.782 16.8788 17.9537C17.9301 17.2171 18.5852 16.1078 18.7231 14.8581L14.999 14.06L13.2485 15.8106C13.0622 15.9969 12.7792 16.0464 12.5408 15.9343C8.82259 14.1875 5.81287 11.1778 4.06607 7.45962C3.95408 7.22123 4.00353 6.93819 4.18981 6.75195L5.94036 5.0014L5.14235 1.27729Z" fill="#2D8CFF"/>
<path d="M19.375 10.6246C19.0298 10.6246 18.75 10.3447 18.75 9.99959C18.75 5.17502 14.8249 1.24995 10.0003 1.24995C9.6552 1.24995 9.37537 0.970116 9.37537 0.624974C9.37537 0.279832 9.6552 0 10.0003 0C12.6714 0 15.1825 1.04011 17.0711 2.92879C18.9598 4.81746 19.9999 7.32857 19.9999 9.99959C19.9999 10.3447 19.7201 10.6246 19.375 10.6246Z" fill="#2D8CFF"/>
<path d="M16.8751 10.6246C16.5299 10.6246 16.2501 10.3448 16.2501 9.99962C16.2501 6.5535 13.4464 3.74986 10.0003 3.74986C9.6552 3.74986 9.37537 3.47003 9.37537 3.12488C9.37537 2.77974 9.6552 2.49991 10.0003 2.49991C14.1357 2.49991 17.5 5.86427 17.5 9.99962C17.5 10.3448 17.2202 10.6246 16.8751 10.6246Z" fill="#2D8CFF"/>
<path d="M14.3752 10.6246C14.03 10.6246 13.7502 10.3447 13.7502 9.9996C13.7502 7.9319 12.068 6.24974 10.0003 6.24974C9.6552 6.24974 9.37537 5.96991 9.37537 5.62476C9.37537 5.27962 9.6552 4.99979 10.0003 4.99979C12.7573 4.99979 15.0001 7.24267 15.0001 9.9996C15.0001 10.3447 14.7203 10.6246 14.3752 10.6246Z" fill="#2D8CFF"/>
</svg>
