<svg width="20" height="20" viewBox="0 0 20 20" fill="none" xmlns="http://www.w3.org/2000/svg">
<path d="M16.4262 5.57379C14.8301 3.9777 12.7079 3.09867 10.4507 3.09867H9.21172L11.2003 1.10523L10.0923 0L6.21941 3.88238L10.0418 7.76863L11.1575 6.67125L9.18285 4.66359H10.4507C14.2475 4.66359 17.3364 7.7525 17.3364 11.5493C17.3364 15.3462 14.2475 18.4351 10.4507 18.4351C6.65387 18.4351 3.56492 15.3461 3.56492 11.5492V10.7667L2 10.7669V11.5493C2 13.8066 2.87902 15.9287 4.47516 17.5248C6.07125 19.121 8.19344 20 10.4507 20C12.7079 20 14.8301 19.121 16.4262 17.5248C18.0223 15.9287 18.9013 13.8066 18.9013 11.5493C18.9013 9.29211 18.0223 7.16992 16.4262 5.57379Z" fill="white"/>
</svg>
