<?xml version="1.0" encoding="utf-8"?>
<!-- Generator: Adobe Illustrator 24.3.0, SVG Export Plug-In . SVG Version: 6.00 Build 0)  -->
<svg version="1.1" id="Layer_1" xmlns="http://www.w3.org/2000/svg" xmlns:xlink="http://www.w3.org/1999/xlink" x="0px" y="0px"
	 viewBox="0 0 20 20" style="enable-background:new 0 0 20 20;" xml:space="preserve">
<style type="text/css">
	.st0{fill:#FFFFFF;}
</style>
<g>
	<g>
		<path class="st0" d="M2.3,10.7c-0.1-1.1,0-2.1,0.3-3c0.9-3.1,3.8-5.4,7.2-5.5V0.1C9.8,0,9.9,0,10,0l4.2,3.1c0.1,0.1,0.1,0.2,0,0.2
			L10,6.4c-0.1,0.1-0.2,0-0.2-0.1v-2c-2.3,0-4.2,1.4-5,3.4c-0.3,0.7-0.5,1.6-0.4,2.4c0.1,1.2,0.5,2.3,1.2,3.1
			c0.4,0.5,0.3,1.2-0.2,1.5c-0.5,0.3-1.1,0.2-1.5-0.2C3,13.5,2.4,12.1,2.3,10.7z M14.5,6.8c0.7,0.9,1.1,2,1.2,3.1
			c0,0.9-0.1,1.7-0.4,2.4c-0.8,2-2.7,3.4-5,3.4v-2c0-0.1-0.1-0.2-0.2-0.1l-4.2,3.1c-0.1,0.1-0.1,0.2,0,0.2L10,20
			c0.1,0.1,0.2,0,0.2-0.1v-2.1c3.4,0,6.3-2.3,7.2-5.5c0.3-0.9,0.4-2,0.3-3c-0.2-1.4-0.7-2.8-1.6-3.8c-0.4-0.4-1-0.5-1.5-0.2
			C14.2,5.6,14.1,6.3,14.5,6.8z"/>
	</g>
</g>
</svg>
