<svg width="24" height="24" viewBox="0 0 24 24" fill="none" xmlns="http://www.w3.org/2000/svg">
<circle cx="12" cy="12" r="12" fill="#48C6FA"/>
<path d="M16.7719 9.62944C16.7767 9.73501 16.779 9.84107 16.779 9.94763C16.779 13.201 14.3026 16.9526 9.77386 16.9528C8.38344 16.9528 7.08958 16.5452 6 15.8468C6.19265 15.8696 6.38873 15.8808 6.58727 15.8808C7.74085 15.8808 8.80244 15.4874 9.64521 14.8269C8.56741 14.807 7.65868 14.0952 7.34508 13.1169C7.49517 13.1457 7.64952 13.1614 7.80779 13.1614C8.03252 13.1614 8.2502 13.1311 8.45709 13.0746C7.33051 12.8491 6.48186 11.8535 6.48186 10.6612C6.48186 10.6501 6.48186 10.6401 6.48219 10.6298C6.81396 10.8143 7.19335 10.9253 7.5973 10.9377C6.93622 10.4966 6.50166 9.74254 6.50166 8.88832C6.50166 8.43723 6.6236 8.01462 6.83507 7.65077C8.04921 9.14054 9.86371 10.1203 11.91 10.2233C11.8678 10.0429 11.846 9.85499 11.846 9.66185C11.846 8.30269 12.9487 7.20001 14.3083 7.20001C15.0165 7.20001 15.6562 7.49937 16.1055 7.97796C16.6664 7.86732 17.1931 7.66239 17.6689 7.38038C17.4848 7.95505 17.0946 8.43723 16.5862 8.74216C17.0842 8.68258 17.5589 8.5505 18 8.35441C17.6705 8.84822 17.2527 9.28196 16.7719 9.62944Z" fill="white"/>
</svg>
