<svg width="16" height="12" viewBox="0 0 16 12" fill="none" xmlns="http://www.w3.org/2000/svg">
<path d="M14.5271 0.259369H1.47294C0.649906 0.259369 0 0.927807 0 1.73231V10.2677C0 11.0907 0.668437 11.7406 1.47294 11.7406H14.5271C15.3501 11.7406 16 11.0722 16 10.2677V1.73231C16 0.909245 15.3316 0.259369 14.5271 0.259369ZM15.0625 10.2677C15.0625 10.5632 14.8232 10.8031 14.5271 10.8031H1.47294C1.17744 10.8031 0.9375 10.5638 0.9375 10.2677V1.73231C0.9375 1.43681 1.17681 1.19687 1.47294 1.19687H14.5271C14.8226 1.19687 15.0625 1.43618 15.0625 1.73231V10.2677Z" fill="#5E5E5E"/>
<path d="M6.27313 7.14697C6.5455 6.842 6.71147 6.44009 6.71147 6C6.71147 5.04941 5.93809 4.27603 4.9875 4.27603C4.03691 4.27603 3.26356 5.04941 3.26356 6C3.26356 6.44009 3.42953 6.842 3.70188 7.14694C2.98803 7.58213 2.51041 8.3681 2.51041 9.26353C2.51041 9.52241 2.72028 9.73228 2.97916 9.73228H6.99581C7.25469 9.73228 7.46456 9.52241 7.46456 9.26353C7.46456 8.3681 6.98694 7.58216 6.27313 7.14697ZM4.9875 5.21353C5.42116 5.21353 5.77397 5.56634 5.77397 6C5.77397 6.43366 5.42116 6.78647 4.9875 6.78647C4.55384 6.78647 4.20106 6.43366 4.20106 6C4.20106 5.56634 4.55384 5.21353 4.9875 5.21353ZM3.52084 8.79481C3.71959 8.17438 4.30194 7.72397 4.9875 7.72397C5.67306 7.72397 6.25538 8.17434 6.45416 8.79481H3.52084Z" fill="#5E5E5E"/>
<path d="M13.0208 4.77812H9.50626C9.24738 4.77812 9.03751 4.988 9.03751 5.24687C9.03751 5.50575 9.24738 5.71562 9.50626 5.71562H13.0208C13.2797 5.71562 13.4896 5.50575 13.4896 5.24687C13.4896 4.988 13.2797 4.77812 13.0208 4.77812Z" fill="#5E5E5E"/>
<path d="M13.0208 2.26768H2.97916C2.72028 2.26768 2.51041 2.47756 2.51041 2.73643C2.51041 2.99531 2.72028 3.20518 2.97916 3.20518H13.0208C13.2797 3.20518 13.4896 2.99531 13.4896 2.73643C13.4896 2.47756 13.2797 2.26768 13.0208 2.26768Z" fill="#5E5E5E"/>
<path d="M13.0208 6.78647H9.50626C9.24738 6.78647 9.03751 6.99634 9.03751 7.25522C9.03751 7.51409 9.24738 7.72397 9.50626 7.72397H13.0208C13.2797 7.72397 13.4896 7.51409 13.4896 7.25522C13.4896 6.99634 13.2797 6.78647 13.0208 6.78647Z" fill="#5E5E5E"/>
<path d="M12.0167 8.79482H9.50626C9.24738 8.79482 9.03751 9.00469 9.03751 9.26357C9.03751 9.52244 9.24738 9.73232 9.50626 9.73232H12.0167C12.2755 9.73232 12.4854 9.52244 12.4854 9.26357C12.4854 9.00469 12.2755 8.79482 12.0167 8.79482Z" fill="#5E5E5E"/>
</svg>
