<svg width="12" height="12" viewBox="0 0 12 12" fill="none" xmlns="http://www.w3.org/2000/svg">
<g clip-path="url(#clip0)">
<path d="M11.9237 5.76659C11.8165 5.61995 9.26224 2.17582 5.99994 2.17582C2.73765 2.17582 0.183235 5.61995 0.0761486 5.76645C-0.0253829 5.90558 -0.0253829 6.09427 0.0761486 6.2334C0.183235 6.38005 2.73765 9.82417 5.99994 9.82417C9.26224 9.82417 11.8165 6.38003 11.9237 6.23352C12.0254 6.09442 12.0254 5.90558 11.9237 5.76659ZM5.99994 9.03297C3.59691 9.03297 1.51564 6.74703 0.899533 5.99973C1.51484 5.25177 3.59176 2.96702 5.99994 2.96702C8.40285 2.96702 10.484 5.25256 11.1004 6.00027C10.485 6.74821 8.40813 9.03297 5.99994 9.03297Z" fill="#5E5E5E"/>
<path d="M5.99998 3.62637C4.69118 3.62637 3.62634 4.6912 3.62634 6C3.62634 7.3088 4.69118 8.37364 5.99998 8.37364C7.30877 8.37364 8.37361 7.3088 8.37361 6C8.37361 4.6912 7.30877 3.62637 5.99998 3.62637ZM5.99998 7.58241C5.1274 7.58241 4.41757 6.87256 4.41757 6C4.41757 5.12745 5.12742 4.41759 5.99998 4.41759C6.87253 4.41759 7.58238 5.12745 7.58238 6C7.58238 6.87256 6.87255 7.58241 5.99998 7.58241Z" fill="#5E5E5E"/>
</g>
<defs>
<clipPath id="clip0">
<rect width="12" height="12" fill="white"/>
</clipPath>
</defs>
</svg>
